# AST/ASF file generated using VICON BodyLanguage
# -----------------------------------------------
:version 1.10
:name VICON
:units
  mass 1.0
  length 0.45
  angle deg
:documentation
   .ast/.asf automatically generated from VICON data using
   VICON BodyBuilder and BodyLanguage model FoxedUp or BRILLIANT.MOD
:root
   order TX TY TZ RX RY RZ
   axis XYZ
   position 0 0 0  
   orientation 0 0 0 
:bonedata
  begin
     id 1 
     name lhipjoint
     direction 0.576517 -0.752066 0.319413 
     length 2.45433 
     axis 0 0 0  XYZ
  end
  begin
     id 2 
     name lfemur
     direction 0.34202 -0.939693 0  
     length 7.54459  
     axis 0 0 20  XYZ
    dof rx ry rz
    limits (-160.0 20.0)
           (-70.0 70.0)
           (-60.0 70.0)
  end
  begin
     id 3 
     name ltibia
     direction 0.34202 -0.939693 0   
     length 7.73986   
     axis 0 0 20   XYZ
    dof rx
    limits (-10.0 170.0)
  end
  begin
     id 4 
     name lfoot
     direction 0.090693 -0.249177 0.964202   
     length 2.28437   
     axis -90 7.62852e-016 20   XYZ
    dof rx rz
    limits (-45.0 90.0)
           (-70.0 20.0)
  end
  begin
     id 5 
     name ltoes
     direction 1.5356e-011 -4.21928e-011 1   
     length 1.14243   
     axis -90 7.62852e-016 20   XYZ
    dof rx
    limits (-90.0 20.0)
  end
  begin
     id 6 
     name rhipjoint
     direction -0.573937 -0.753736 0.320122   
     length 2.44889  
     axis 0 0 0  XYZ 
  end
  begin
     id 7 
     name rfemur
     direction -0.34202 -0.939693 0   
     length 7.50166   
     axis 0 0 -20   XYZ
    dof rx ry rz
    limits (-160.0 20.0)
           (-70.0 70.0)
           (-70.0 60.0)
  end
  begin
     id 8 
     name rtibia
     direction -0.34202 -0.939693 0   
     length 7.54266   
     axis 0 0 -20   XYZ
    dof rx
    limits (-10.0 170.0)
 end
 begin
     id 9 
     name rfoot
     direction -0.114017 -0.31326 0.942798   
     length 2.34212  
     axis -90 -7.62852e-016 -20   XYZ
    dof rx rz
    limits (-45.0 90.0)
           (-20.0 70.0)
  end
  begin
     id 10 
     name rtoes
     direction -1.53557e-011 -4.21867e-011 1   
     length 1.16246   
     axis -90 -7.62852e-016 -20   XYZ
    dof rx
    limits (-90.0 20.0)
  end
  begin
     id 11 
     name lowerback
     direction -0.0228371 0.999155 -0.034167   
     length 2.0537   
     axis 0 0 0   XYZ
    dof rx ry rz
    limits (-20.0 45.0)
           (-30.0 30.0)
           (-30.0 30.0)
  end
  begin
     id 12 
     name upperback
     direction 0.0198981 0.999794 0.00389455   
     length 2.05302   
     axis 0 0 0   XYZ
    dof rx ry rz
    limits (-20.0 45.0)
           (-30.0 30.0)
           (-30.0 30.0)
  end
  begin
     id 13 
     name thorax
     direction 0.0304566 0.99935 0.0192987   
     length 2.05315   
     axis 0 0 0   XYZ
    dof rx ry rz
    limits (-20.0 45.0)
           (-30.0 30.0)
           (-30.0 30.0)
  end
  begin
     id 14 
     name lowerneck
     direction -0.0196762 0.99417 0.106017   
     length 1.82056   
     axis 0 0 0   XYZ
    dof rx ry rz
    limits (-20.0 45.0)
           (-30.0 30.0)
           (-30.0 30.0)
  end
  begin
     id 15 
     name upperneck
     direction 0.00517787 0.9802 -0.197944   
     length 1.83835   
     axis 0 0 0   XYZ
    dof rx ry rz
    limits (-20.0 45.0)
           (-30.0 30.0)
           (-30.0 30.0)
  end
  begin
     id 16
     name head
     direction 0.00211419 0.996945 -0.078081  
     length 1.85629  
     axis 0 0 0   XYZ
    dof rx ry rz
    limits (-20.0 45.0)
           (-30.0 30.0)
           (-30.0 30.0)
  end
  begin
     id 17 
     name lclavicle
     direction 0.930001 0.365811 -0.0357824  
     length 3.81961  
     axis 0 0 0   XYZ
    dof ry rz
    limits (-20.0 10.0)
           (0.0 20.0)
  end
  begin
     id 18 
     name lhumerus
     direction 1 -4.48968e-011 -3.06644e-027   
     length 5.14507   
     axis 180 -30 -90   XYZ
    dof rx ry rz
    limits (-60.0 90.0)
           (-90.0 90.0)
           (-90.0 90.0)
  end
  begin
     id 19
     name lradius
     direction 1 -4.48965e-011 9.06925e-028   
     length 3.50646   
     axis 180 -30 -90   XYZ
    dof rx
    limits (-10.0 170.0)
  end
  begin
     id 20
     name lwrist
     direction 1 -4.48957e-011 1.03922e-027   
     length 1.75323   
     axis -2.56395e-016 90 90   XYZ
    dof ry
    limits (-180.0 0.0)
 end
  begin
     id 21 
     name lhand
     direction 1 -4.48967e-011 2.08017e-027   
     length 0.629969   
     axis -1.32723e-015 90 90   XYZ
    dof rx rz
    limits (-90.0 90.0)
           (-45.0 45.0)
  end
  begin
     id 22 
     name lfingers
     direction 1 -4.49089e-011 4.20095e-027   
     length 0.507897   
     axis -2.6545e-015 90 90   XYZ
    dof rx
    limits (0.0 90.0)
  end
  begin
     id 23
     name lthumb
     direction 0.707107 -6.35001e-011 0.707107   
     length 0.729241   
     axis -90 45 5.05613e-014   XYZ
    dof rx rz
    limits (-45.0 45.0)
           (-45.0 45.0)
  end
  begin
     id 24 
     name rclavicle
     direction -0.881882 0.464123 -0.0829113   
     length 3.47515  
     axis 0 0 0   XYZ 
    dof ry rz
    limits (-10.0 20.0)
           (-20.0 0.0)
  end
  begin
     id 25 
     name rhumerus
     direction -1 -4.48961e-011 -1.55672e-027  
     length 5.232   
     axis 180 30 90   XYZ
    dof rx ry rz
    limits (-90.0 60.0)
           (-90.0 90.0)
           (-90.0 90.0)
  end
  begin
     id 26 
     name rradius
     direction -1 -4.48963e-011 6.18178e-029   
     length 3.65641   
     axis 180 30 90   XYZ
    dof rx
    limits (-10.0 170.0)
  end
  begin
     id 27 
     name rwrist
     direction -1 -4.48982e-011 1.04136e-027   
     length 1.8282   
     axis -2.56395e-016 -90 -90   XYZ
    dof ry
    limits (-180.0 0.0)
  end
  begin
     id 28
     name rhand
     direction -1 -4.48929e-011 2.07378e-027   
     length 0.656807   
     axis -1.32723e-015 -90 -90   XYZ
    dof rx rz
    limits (-90.0 90.0)
           (-45.0 45.0)
  end
  begin
     id 29
     name rfingers
     direction -1 -4.489e-011 4.13816e-027   
     length 0.529535   
     axis -2.6545e-015 -90 -90   XYZ
    dof rx
    limits (0.0 90.0)
  end
  begin
     id 30
     name rthumb
     direction -0.707107 -6.34843e-011 0.707107   
     length 0.760309   
     axis -90 -45 -5.05613e-014   XYZ
    dof rx rz
    limits (-45.0 45.0)
           (-45.0 45.0)
  end
:hierarchy
  begin
    root lhipjoint rhipjoint lowerback
    lhipjoint lfemur
    lfemur ltibia
    ltibia lfoot
    lfoot ltoes
    rhipjoint rfemur
    rfemur rtibia
    rtibia rfoot
    rfoot rtoes
    lowerback upperback
    upperback thorax
    thorax lowerneck lclavicle rclavicle
    lowerneck upperneck
    upperneck head
    lclavicle lhumerus
    lhumerus lradius
    lradius lwrist
    lwrist lhand lthumb
    lhand lfingers
    rclavicle rhumerus
    rhumerus rradius
    rradius rwrist
    rwrist rhand rthumb
    rhand rfingers
  end

#!OML:ASF H:\ManfredETheater\Project 1\Capture day 1\Session 1\subject.ASF
:FULLY-SPECIFIED
:DEGREES
47
root 2.33618 15.4501 -30.8604 -13.3515 -57.7184 14.808
lowerback 21.482 4.01913 -1.16521
upperback 2.56945 4.94222 0.541155
thorax -9.32393 2.35283 -0.172695
lowerneck 1.12001 2.51533 9.78751
upperneck 1.75476 -28.6641 -2.97737
head 4.74213 -155.897 195.939
rclavicle 1.86858e-014 1.43125e-014
rhumerus -39.3426 13.9251 -84.9462
rradius 100.483
rwrist 5.4188
rhand -22.0618 3.03605
rfingers 7.12502
rthumb 4.34908 -26.8993
lclavicle 1.86858e-014 1.43125e-014
lhumerus -48.4926 8.5714 87.9389
lradius 68.344
lwrist 7.29162
lhand -35.7156 -8.75269
lfingers 7.12502
lthumb -8.83539 21.0423
rfemur -31.6956 -1.23269 -8.81473
rtibia 79.3399
rfoot -19.8589 5.09351
rtoes -37.3153
lfemur -33.0724 5.51628 -2.25224
ltibia 49.342
lfoot -9.61283 -4.13635
ltoes -28.6188
48
root 2.42781 15.4233 -30.6507 -13.7918 -58.3753 14.8544
lowerback 22.5951 3.96549 -1.29713
upperback 2.98814 4.81183 0.723029
thorax -9.48168 2.28158 0.0881662
lowerneck 0.884031 2.83634 9.76611
upperneck 1.62124 -28.1978 -2.88713
head 4.63633 -155.829 195.915
rclavicle 8.42847e-014 -6.36111e-015
rhumerus -38.8067 13.4201 -84.5133
rradius 101.07
rwrist 5.95993
rhand -22.4249 3.33564
rfingers 7.12502
rthumb 3.99843 -26.6066
lclavicle 8.42847e-014 -6.36111e-015
lhumerus -47.6811 7.11073 88.4464
lradius 67.9672
lwrist 8.00255
lhand -35.8892 -8.45499
lfingers 7.12502
lthumb -9.0029 21.3329
rfemur -32.6564 -1.49266 -8.81329
rtibia 80.7811
rfoot -17.7605 3.46844
rtoes -34.787
lfemur -33.506 6.68374 -2.76956
ltibia 51.265
lfoot -10.6387 -4.82239
ltoes -28.0726
49
root 2.51898 15.4 -30.4515 -14.0323 -58.9319 14.6509
lowerback 23.7603 3.86803 -1.30775
upperback 3.44792 4.64834 0.916388
thorax -9.60209 2.18852 0.308568
lowerneck 0.595815 3.13763 9.764
upperneck 1.4866 -27.8374 -2.80752
head 4.5458 -155.881 195.938
rclavicle 3.61788e-014 6.36111e-015
rhumerus -38.2737 12.8028 -84.0741
rradius 101.54
rwrist 6.40116
rhand -22.8737 3.47899
rfingers 7.12502
rthumb 3.5651 -26.4709
lclavicle 3.61788e-014 6.36111e-015
lhumerus -46.7899 5.47893 88.8735
lradius 67.6281
lwrist 8.51557
lhand -35.9663 -8.44037
lfingers 7.12502
lthumb -9.07729 21.3443
rfemur -33.6348 -2.06617 -8.43822
rtibia 82.3608
rfoot -15.957 1.5392
rtoes -31.4663
lfemur -33.8643 7.68669 -3.15745
ltibia 52.9816
lfoot -11.6496 -5.39427
ltoes -27.5378
50
root 2.61051 15.3807 -30.2604 -14.1281 -59.3704 14.318
lowerback 24.9304 3.72441 -1.23534
upperback 3.92829 4.44218 1.09832
thorax -9.68289 2.071 0.490813
lowerneck 0.268702 3.42019 9.76731
upperneck 1.35929 -27.5981 -2.74527
head 4.46032 -156.059 196.012
rclavicle -3.97569e-014 -6.36111e-015
rhumerus -37.7505 12.0913 -83.6347
rradius 101.891
rwrist 6.69765
rhand -23.4197 3.43817
rfingers 7.12502
rthumb 3.03775 -26.5199
lclavicle -3.97569e-014 -6.36111e-015
lhumerus -45.8273 3.70544 89.2024
lradius 67.3163
lwrist 8.77132
lhand -35.9497 -8.64588
lfingers 7.12502
lthumb -9.06127 21.1395
rfemur -34.6518 -2.99125 -7.78309
rtibia 84.0337
rfoot -14.6085 -0.503977
rtoes -27.6651
lfemur -34.1984 8.54057 -3.51557
ltibia 54.5178
lfoot -12.6406 -5.86761
ltoes -27.0386
51
root 2.70309 15.3644 -30.0754 -14.0933 -59.6832 13.9321
lowerback 26.0627 3.54407 -1.09526
upperback 4.40695 4.2045 1.25002
thorax -9.72699 1.93566 0.6208
lowerneck -0.100287 3.6786 9.78206
upperneck 1.2394 -27.4641 -2.69273
head 4.36318 -156.313 196.131
rclavicle 5.56597e-015 9.54166e-015
rhumerus -37.2471 11.2645 -83.1968
rradius 102.136
rwrist 6.8004
rhand -23.9977 3.20446
rfingers 7.12502
rthumb 2.47961 -26.7609
lclavicle 5.56597e-015 9.54166e-015
lhumerus -44.8176 1.79898 89.4132
lradius 67.0702
lwrist 8.75893
lhand -35.8452 -9.02826
lfingers 7.12502
lthumb -8.96041 20.7615
rfemur -35.7497 -4.27292 -6.90998
rtibia 85.7573
rfoot -13.8248 -2.43796
rtoes -23.7982
lfemur -34.5915 9.27651 -3.91182
ltibia 55.9261
lfoot -13.5785 -6.24544
ltoes -26.4414
